<svg width="15" height="18" viewBox="0 0 15 18" fill="none" xmlns="http://www.w3.org/2000/svg">
<path d="M6.49999 16.3476C6.50003 16.8998 6.94777 17.3475 7.50005 17.3475C8.05234 17.3475 8.50003 16.8997 8.49999 16.3474L6.49999 16.3476ZM8.2062 0.945351C7.81565 0.55485 7.18248 0.554887 6.79198 0.945434L0.428395 7.30977C0.0378938 7.70032 0.037931 8.33348 0.428478 8.72398C0.819025 9.11448 1.45219 9.11445 1.84269 8.7239L7.49921 3.06671L13.1564 8.72323C13.5469 9.11374 14.1801 9.1137 14.5706 8.72315C14.9611 8.3326 14.9611 7.69944 14.5705 7.30894L8.2062 0.945351ZM8.49999 16.3474L8.49913 1.65244L6.49913 1.65256L6.49999 16.3476L8.49999 16.3474Z" fill="white"/>
</svg>
