<svg width="144" height="57" viewBox="0 0 144 57" fill="none" xmlns="http://www.w3.org/2000/svg">
<g filter="url(#filter0_b_7_5088)">
<path d="M4 1H140C141.933 1 143.5 2.567 143.5 4.5V52.5C143.5 54.433 141.933 56 140 56H4C2.06701 56 0.5 54.433 0.5 52.5V4.5C0.5 2.567 2.067 1 4 1Z" stroke="#998CE8" stroke-opacity="0.4"/>
</g>
<path d="M35.0768 13.9399H42.3276V15.2431H39.4799V22.5553H37.9119V15.2431H35.0768V13.9399Z" fill="#222222"/>
<path d="M42.0136 16.317H43.3559V17.5236H43.381C43.4228 17.3547 43.5023 17.1898 43.6194 17.0289C43.7448 16.868 43.8912 16.7232 44.0584 16.5945C44.234 16.4578 44.4264 16.3492 44.6355 16.2687C44.8445 16.1883 45.0578 16.1481 45.2752 16.1481C45.4425 16.1481 45.5554 16.1521 45.6139 16.1601C45.6809 16.1682 45.7478 16.1762 45.8147 16.1843V17.5116C45.7143 17.4955 45.6098 17.4834 45.501 17.4754C45.4007 17.4593 45.3003 17.4512 45.2 17.4512C44.9574 17.4512 44.7275 17.4995 44.51 17.596C44.3009 17.6845 44.117 17.8213 43.9581 18.0063C43.7992 18.1833 43.6737 18.4045 43.5817 18.6699C43.4897 18.9354 43.4437 19.2411 43.4437 19.587V22.5553H42.0136V16.317Z" fill="#222222"/>
<path d="M52.1191 22.5553H50.7141V21.6865H50.689C50.5134 22.0002 50.25 22.2536 49.8987 22.4467C49.5558 22.6317 49.2046 22.7242 48.845 22.7242C47.9919 22.7242 47.3731 22.5231 46.9884 22.1209C46.612 21.7106 46.4239 21.0953 46.4239 20.2747V16.317H47.8539V20.142C47.8539 20.689 47.9627 21.0751 48.1801 21.3004C48.3975 21.5256 48.7028 21.6382 49.0959 21.6382C49.3969 21.6382 49.6478 21.594 49.8485 21.5055C50.0493 21.417 50.2123 21.3004 50.3378 21.1556C50.4632 21.0027 50.551 20.8218 50.6012 20.6126C50.6598 20.4035 50.689 20.1782 50.689 19.9369V16.317H52.1191V22.5553Z" fill="#222222"/>
<path d="M54.7061 20.5523C54.7479 20.9545 54.9068 21.236 55.1827 21.3969C55.4587 21.5578 55.7891 21.6382 56.1738 21.6382C56.3076 21.6382 56.4581 21.6302 56.6254 21.6141C56.801 21.59 56.9641 21.5498 57.1146 21.4934C57.2652 21.4371 57.3864 21.3567 57.4784 21.2521C57.5788 21.1395 57.6248 20.9947 57.6164 20.8177C57.608 20.6408 57.5411 20.496 57.4157 20.3833C57.2902 20.2707 57.1272 20.1822 56.9264 20.1179C56.7341 20.0455 56.5125 19.9852 56.2616 19.9369C56.0107 19.8886 55.7556 19.8363 55.4964 19.78C55.2287 19.7237 54.9695 19.6553 54.7186 19.5749C54.4761 19.4945 54.2544 19.3859 54.0537 19.2491C53.8614 19.1124 53.7067 18.9394 53.5896 18.7303C53.4725 18.5131 53.414 18.2476 53.414 17.9339C53.414 17.596 53.4976 17.3145 53.6648 17.0892C53.8405 16.856 54.0579 16.6709 54.3172 16.5342C54.5848 16.3894 54.8775 16.2888 55.1953 16.2325C55.5215 16.1762 55.8309 16.1481 56.1236 16.1481C56.4581 16.1481 56.7759 16.1843 57.077 16.2567C57.3864 16.321 57.6624 16.4296 57.9049 16.5825C58.1558 16.7353 58.3607 16.9364 58.5196 17.1858C58.6869 17.4271 58.7914 17.7207 58.8332 18.0666H57.3404C57.2735 17.7368 57.1146 17.5156 56.8637 17.403C56.6212 17.2904 56.341 17.234 56.0232 17.234C55.9229 17.234 55.8016 17.2421 55.6594 17.2582C55.5256 17.2743 55.396 17.3064 55.2706 17.3547C55.1535 17.3949 55.0531 17.4593 54.9695 17.5478C54.8859 17.6282 54.844 17.7368 54.844 17.8736C54.844 18.0425 54.9026 18.1792 55.0197 18.2838C55.1451 18.3884 55.304 18.4769 55.4964 18.5493C55.6971 18.6136 55.9229 18.6699 56.1738 18.7182C56.4247 18.7665 56.6839 18.8187 56.9515 18.8751C57.2108 18.9314 57.4659 18.9997 57.7168 19.0802C57.9677 19.1606 58.1893 19.2692 58.3816 19.406C58.5823 19.5427 58.7412 19.7157 58.8583 19.9248C58.9838 20.134 59.0465 20.3914 59.0465 20.6971C59.0465 21.0671 58.9587 21.3808 58.7831 21.6382C58.6074 21.8957 58.3774 22.1048 58.0931 22.2657C57.8171 22.4266 57.5077 22.5432 57.1648 22.6156C56.8219 22.688 56.4832 22.7242 56.1487 22.7242C55.7389 22.7242 55.3584 22.68 55.0071 22.5915C54.6642 22.503 54.3632 22.3703 54.1039 22.1933C53.853 22.0083 53.6523 21.783 53.5018 21.5176C53.3596 21.2441 53.2843 20.9223 53.276 20.5523H54.7061Z" fill="#222222"/>
<path d="M59.48 16.317H60.5588V14.4467H61.9889V16.317H63.281V17.3426H61.9889V20.6729C61.9889 20.8177 61.9931 20.9424 62.0014 21.047C62.0182 21.1516 62.0474 21.2401 62.0892 21.3125C62.1394 21.3848 62.2105 21.4412 62.3025 21.4814C62.3945 21.5136 62.5199 21.5296 62.6788 21.5296C62.7792 21.5296 62.8796 21.5296 62.9799 21.5296C63.0803 21.5216 63.1806 21.5055 63.281 21.4814V22.5432C63.1221 22.5593 62.9674 22.5754 62.8168 22.5915C62.6663 22.6076 62.5116 22.6156 62.3527 22.6156C61.9763 22.6156 61.6711 22.5834 61.4369 22.5191C61.2111 22.4467 61.0313 22.3461 60.8975 22.2174C60.7721 22.0807 60.6842 21.9117 60.6341 21.7106C60.5923 21.5095 60.5672 21.2803 60.5588 21.0229V17.3426H59.48V16.317Z" fill="#222222"/>
<path d="M64.3474 16.317H65.7022V17.1616H65.7273C65.928 16.7997 66.2082 16.5422 66.5678 16.3894C66.9274 16.2285 67.3163 16.1481 67.7344 16.1481C68.2446 16.1481 68.6878 16.2366 69.0641 16.4135C69.4488 16.5825 69.7666 16.8198 70.0175 17.1254C70.2684 17.4231 70.4566 17.773 70.582 18.1752C70.7075 18.5774 70.7702 19.0078 70.7702 19.4663C70.7702 19.8846 70.7117 20.2908 70.5946 20.685C70.4859 21.0792 70.3144 21.4291 70.0803 21.7348C69.8545 22.0324 69.5659 22.2737 69.2147 22.4587C68.8634 22.6357 68.4495 22.7242 67.9728 22.7242C67.7637 22.7242 67.5546 22.7041 67.3455 22.6639C67.1365 22.6317 66.9357 22.5754 66.7434 22.4949C66.551 22.4145 66.3712 22.314 66.204 22.1933C66.0451 22.0646 65.9113 21.9158 65.8025 21.7468H65.7775V24.8599H64.3474V16.317ZM69.3401 19.4422C69.3401 19.1606 69.3025 18.8871 69.2272 18.6217C69.152 18.3562 69.0391 18.1229 68.8885 17.9218C68.738 17.7127 68.5498 17.5478 68.324 17.4271C68.0982 17.2984 67.839 17.234 67.5462 17.234C66.9441 17.234 66.4883 17.4351 66.1789 17.8374C65.8778 18.2396 65.7273 18.7745 65.7273 19.4422C65.7273 19.7559 65.7649 20.0495 65.8402 20.323C65.9238 20.5885 66.0451 20.8177 66.204 21.0108C66.3629 21.2039 66.551 21.3567 66.7685 21.4693C66.9943 21.5819 67.2535 21.6382 67.5462 21.6382C67.8724 21.6382 68.1484 21.5739 68.3742 21.4452C68.6 21.3165 68.784 21.1516 68.9262 20.9505C69.0767 20.7413 69.1812 20.508 69.2398 20.2506C69.3067 19.9852 69.3401 19.7157 69.3401 19.4422Z" fill="#222222"/>
<path d="M72.0162 13.9399H73.4463V15.2431H72.0162V13.9399ZM72.0162 16.317H73.4463V22.5553H72.0162V16.317Z" fill="#222222"/>
<path d="M75.0421 13.9399H76.4722V22.5553H75.0421V13.9399Z" fill="#222222"/>
<path d="M81.0035 22.7242C80.485 22.7242 80.0208 22.6438 79.611 22.4829C79.2096 22.314 78.8667 22.0847 78.5824 21.7951C78.3064 21.5055 78.0931 21.1596 77.9426 20.7574C77.8004 20.3552 77.7293 19.9128 77.7293 19.4301C77.7293 18.9555 77.8004 18.5171 77.9426 18.1149C78.0931 17.7127 78.3064 17.3668 78.5824 17.0772C78.8667 16.7876 79.2096 16.5624 79.611 16.4015C80.0208 16.2325 80.485 16.1481 81.0035 16.1481C81.522 16.1481 81.982 16.2325 82.3834 16.4015C82.7932 16.5624 83.1361 16.7876 83.4121 17.0772C83.6964 17.3668 83.9097 17.7127 84.0518 18.1149C84.2024 18.5171 84.2776 18.9555 84.2776 19.4301C84.2776 19.9128 84.2024 20.3552 84.0518 20.7574C83.9097 21.1596 83.6964 21.5055 83.4121 21.7951C83.1361 22.0847 82.7932 22.314 82.3834 22.4829C81.982 22.6438 81.522 22.7242 81.0035 22.7242ZM81.0035 21.6382C81.3213 21.6382 81.5973 21.5739 81.8314 21.4452C82.0656 21.3165 82.258 21.1475 82.4085 20.9384C82.559 20.7292 82.6677 20.496 82.7346 20.2386C82.8099 19.9731 82.8475 19.7036 82.8475 19.4301C82.8475 19.1646 82.8099 18.8992 82.7346 18.6337C82.6677 18.3683 82.559 18.135 82.4085 17.9339C82.258 17.7247 82.0656 17.5558 81.8314 17.4271C81.5973 17.2984 81.3213 17.234 81.0035 17.234C80.6857 17.234 80.4097 17.2984 80.1755 17.4271C79.9414 17.5558 79.749 17.7247 79.5985 17.9339C79.448 18.135 79.3351 18.3683 79.2598 18.6337C79.1929 18.8992 79.1594 19.1646 79.1594 19.4301C79.1594 19.7036 79.1929 19.9731 79.2598 20.2386C79.3351 20.496 79.448 20.7292 79.5985 20.9384C79.749 21.1475 79.9414 21.3165 80.1755 21.4452C80.4097 21.5739 80.6857 21.6382 81.0035 21.6382Z" fill="#222222"/>
<path d="M84.8142 16.317H85.893V14.4467H87.3231V16.317H88.6152V17.3426H87.3231V20.6729C87.3231 20.8177 87.3273 20.9424 87.3357 21.047C87.3524 21.1516 87.3817 21.2401 87.4235 21.3125C87.4737 21.3848 87.5448 21.4412 87.6367 21.4814C87.7287 21.5136 87.8542 21.5296 88.0131 21.5296C88.1134 21.5296 88.2138 21.5296 88.3142 21.5296C88.4145 21.5216 88.5149 21.5055 88.6152 21.4814V22.5432C88.4563 22.5593 88.3016 22.5754 88.1511 22.5915C88.0005 22.6076 87.8458 22.6156 87.6869 22.6156C87.3106 22.6156 87.0053 22.5834 86.7712 22.5191C86.5454 22.4467 86.3656 22.3461 86.2317 22.2174C86.1063 22.0807 86.0185 21.9117 85.9683 21.7106C85.9265 21.5095 85.9014 21.2803 85.893 21.0229V17.3426H84.8142V16.317Z" fill="#222222"/>
<path d="M26.205 20.9251L29.1685 20.1842L30.407 23.95L26.205 20.9251ZM33.0255 16.0577H27.8084L26.205 11.21L24.6016 16.0577H19.3845L23.6069 19.0624L22.0035 23.9101L26.226 20.9055L28.8241 19.0624L33.0255 16.0577V16.0577Z" fill="#00B67A"/>
<path d="M27.2524 44.9597V41.9021H19.4764V40.0676L26.8758 29.6717H29.5786V39.8929H31.7496V41.9021H29.5786V44.9597H27.2524ZM22.0241 39.8929H27.3853V32.227L22.0241 39.8929Z" fill="#222222"/>
<path d="M33.9439 45.0908C33.5008 45.0908 33.1316 44.9525 32.8362 44.6758C32.5556 44.3846 32.4153 44.0425 32.4153 43.6493C32.4153 43.2417 32.5556 42.8995 32.8362 42.6229C33.1316 42.3317 33.5008 42.1861 33.9439 42.1861C34.387 42.1861 34.7488 42.3317 35.0294 42.6229C35.3101 42.8995 35.4504 43.2417 35.4504 43.6493C35.4504 44.0425 35.3101 44.3846 35.0294 44.6758C34.7488 44.9525 34.387 45.0908 33.9439 45.0908Z" fill="#222222"/>
<path d="M41.5543 45.2218C40.5352 45.2218 39.6638 45.0253 38.9401 44.6321C38.2164 44.239 37.6478 43.7149 37.2343 43.0597C36.8355 42.4045 36.5918 41.691 36.5032 40.9193H38.6964C38.8294 41.6765 39.1469 42.2589 39.649 42.6665C40.1512 43.0742 40.7937 43.2781 41.5764 43.2781C42.6546 43.2781 43.5407 42.783 44.2349 41.7929C44.9438 40.7883 45.3204 39.2522 45.3647 37.1847C45.0103 37.8253 44.4564 38.3713 43.7032 38.8227C42.9647 39.2741 42.1081 39.4997 41.1334 39.4997C40.262 39.4997 39.4423 39.2959 38.6743 38.8882C37.9063 38.4805 37.286 37.9127 36.8134 37.1847C36.3407 36.4421 36.1044 35.5685 36.1044 34.5639C36.1044 33.6757 36.326 32.8385 36.769 32.0523C37.2121 31.2661 37.8324 30.6327 38.63 30.1522C39.4423 29.6572 40.4023 29.4097 41.51 29.4097C42.6472 29.4097 43.6072 29.6208 44.39 30.043C45.1727 30.4653 45.8004 31.0258 46.273 31.7247C46.7457 32.4236 47.0854 33.2098 47.2921 34.0834C47.5137 34.957 47.6244 35.8525 47.6244 36.7697C47.6244 38.4587 47.3807 39.9365 46.8934 41.2033C46.4207 42.47 45.734 43.4601 44.833 44.1735C43.9321 44.8724 42.8392 45.2218 41.5543 45.2218ZM41.665 37.5123C42.2854 37.5123 42.8392 37.374 43.3266 37.0973C43.814 36.8207 44.198 36.4567 44.4786 36.0053C44.774 35.5394 44.9217 35.0298 44.9217 34.4765C44.9217 33.8796 44.774 33.3554 44.4786 32.9041C44.198 32.4381 43.8066 32.0741 43.3044 31.8121C42.817 31.55 42.2632 31.4189 41.6429 31.4189C41.0226 31.4189 40.4687 31.55 39.9814 31.8121C39.494 32.0741 39.1026 32.4381 38.8072 32.9041C38.5266 33.3554 38.3863 33.8723 38.3863 34.4547C38.3863 35.3865 38.6964 36.1291 39.3167 36.6824C39.937 37.2357 40.7198 37.5123 41.665 37.5123Z" fill="#222222"/>
<path d="M49.846 34.87C49.846 32.8597 51.4991 31.23 53.5383 31.23H59.0768C61.116 31.23 62.7691 32.8597 62.7691 34.87V40.33C62.7691 42.3403 61.116 43.97 59.0768 43.97H53.5383C51.4991 43.97 49.846 42.3403 49.846 40.33V34.87Z" fill="#51B27F"/>
<path d="M56.3075 39.2962L58.3129 38.8199L59.151 41.2408L56.3075 39.2962ZM60.9229 36.1672H57.3925L56.3075 33.0508L55.2225 36.1672H51.6922L54.5495 38.0988L53.4645 41.2152L56.3218 39.2836L58.0799 38.0988L60.9229 36.1672V36.1672Z" fill="white"/>
<path d="M65.5383 34.87C65.5383 32.8597 67.1914 31.23 69.2306 31.23H74.7691C76.8083 31.23 78.4614 32.8597 78.4614 34.87V40.33C78.4614 42.3403 76.8083 43.97 74.7691 43.97H69.2306C67.1914 43.97 65.5383 42.3403 65.5383 40.33V34.87Z" fill="#51B27F"/>
<path d="M71.9999 39.2962L74.0052 38.8199L74.8433 41.2408L71.9999 39.2962ZM76.6152 36.1672H73.0849L71.9999 33.0508L70.9149 36.1672H67.3845L70.2418 38.0988L69.1568 41.2152L72.0141 39.2836L73.7722 38.0988L76.6152 36.1672V36.1672Z" fill="white"/>
<path d="M81.2306 34.87C81.2306 32.8597 82.8837 31.23 84.9229 31.23H90.4614C92.5006 31.23 94.1537 32.8597 94.1537 34.87V40.33C94.1537 42.3403 92.5006 43.97 90.4614 43.97H84.9229C82.8837 43.97 81.2306 42.3403 81.2306 40.33V34.87Z" fill="#51B27F"/>
<path d="M87.6922 39.2962L89.6975 38.8199L90.5356 41.2408L87.6922 39.2962ZM92.3075 36.1672H88.7772L87.6922 33.0508L86.6072 36.1672H83.0768L85.9341 38.0988L84.8491 41.2152L87.7064 39.2836L89.4645 38.0988L92.3075 36.1672V36.1672Z" fill="white"/>
<path d="M96.9229 34.87C96.9229 32.8597 98.576 31.23 100.615 31.23H106.154C108.193 31.23 109.846 32.8597 109.846 34.87V40.33C109.846 42.3403 108.193 43.97 106.154 43.97H100.615C98.576 43.97 96.9229 42.3403 96.9229 40.33V34.87Z" fill="#51B27F"/>
<path d="M103.384 39.2962L105.39 38.8199L106.228 41.2408L103.384 39.2962ZM108 36.1672H104.469L103.384 33.0508L102.299 36.1672H98.7691L101.626 38.0988L100.541 41.2152L103.399 39.2836L105.157 38.0988L108 36.1672V36.1672Z" fill="white"/>
<path d="M112.615 34.87C112.615 32.8597 114.268 31.23 116.308 31.23H121.846C123.885 31.23 125.538 32.8597 125.538 34.87V40.33C125.538 42.3403 123.885 43.97 121.846 43.97H116.308C114.268 43.97 112.615 42.3403 112.615 40.33V34.87Z" fill="#51B27F"/>
<path d="M119.077 39.2962L121.082 38.8199L121.92 41.2408L119.077 39.2962ZM123.692 36.1672H120.162L119.077 33.0508L117.992 36.1672H114.461L117.319 38.0988L116.234 41.2152L119.091 39.2836L120.849 38.0988L123.692 36.1672V36.1672Z" fill="white"/>
<defs>
<filter id="filter0_b_7_5088" x="-16" y="-15.5" width="176" height="88" filterUnits="userSpaceOnUse" color-interpolation-filters="sRGB">
<feFlood flood-opacity="0" result="BackgroundImageFix"/>
<feGaussianBlur in="BackgroundImage" stdDeviation="8"/>
<feComposite in2="SourceAlpha" operator="in" result="effect1_backgroundBlur_7_5088"/>
<feBlend mode="normal" in="SourceGraphic" in2="effect1_backgroundBlur_7_5088" result="shape"/>
</filter>
</defs>
</svg>
